<svg width="1000" height="1000" viewBox="0 0 1000 1000" fill="none" xmlns="http://www.w3.org/2000/svg">
<rect width="1000" height="1000" rx="150" fill="#000030"/>
<g filter="url(#filter0_d_16_39)">
<path d="M289.747 512.307L341.54 572.895H376.562C385.441 572.579 393.498 569.424 400.733 563.428C407.967 557.432 412.407 550.332 414.051 542.128L440.687 398.231C442.332 389.711 440.523 382.453 435.261 376.458C430 370.462 422.93 367.464 414.051 367.464H184.681C175.802 367.464 167.745 370.462 160.51 376.458C153.605 382.453 149.33 389.711 147.685 398.231L121.049 542.128C119.405 550.332 121.049 557.432 125.982 563.428C131.243 569.424 138.313 572.579 147.192 572.895H209.344L266.563 640.583H122.035C107.237 640.583 93.7546 637.9 81.5873 632.536C69.42 627.171 59.2257 619.756 51.0046 610.289C43.1123 600.822 37.3575 589.777 33.7401 577.155C30.4517 564.532 30.1228 550.963 32.7536 536.447L56.9238 404.385C59.5546 390.185 64.8161 376.773 72.7084 364.151C80.9296 351.213 90.795 340.01 102.305 330.543C114.143 321.077 127.132 313.661 141.273 308.296C155.413 302.616 169.883 299.776 184.681 299.776H438.714C453.512 299.776 466.995 302.616 479.162 308.296C491.33 313.661 501.524 321.077 509.745 330.543C517.966 340.01 523.721 351.213 527.01 364.151C530.298 376.773 530.627 390.185 527.996 404.385L503.826 536.447C501.524 549.07 497.085 561.061 490.508 572.421C483.931 583.782 475.874 594.037 466.337 603.189C457.13 612.024 446.607 619.598 434.768 625.909C423.259 632.22 411.091 636.48 398.266 638.689L451.046 700.224H353.379L194.053 512.307H289.747Z" fill="#B65DFF"/>
<path d="M891.033 299.776C903.529 299.776 914.874 301.827 925.068 305.93C935.591 309.716 944.306 315.239 951.212 322.497C958.446 329.439 963.543 337.959 966.503 348.057C969.463 357.839 969.791 368.726 967.489 380.718L958.117 429.472C956.802 435.783 954.336 442.252 950.718 448.879C947.43 455.506 943.155 461.659 937.893 467.339C932.96 472.704 927.37 477.437 921.122 481.54C914.874 485.326 908.297 487.851 901.391 489.113C914.545 491.638 924.411 497.949 930.987 508.047C937.893 518.145 940.031 529.663 937.4 542.601L891.033 700.224H802.244L847.625 547.808C848.612 540.865 846.967 535.027 842.692 530.294C838.746 525.561 833.156 523.194 825.921 523.194H649.824L591.618 455.506H838.253C845.488 455.506 852.064 453.612 857.984 449.826C863.903 445.723 867.52 440.201 868.836 433.259L876.728 390.185C878.043 383.242 876.563 377.72 872.288 373.618C868.013 369.515 862.259 367.464 855.024 367.464L476.42 364.151L353.379 361.98V299.776H367.077H891.033Z" fill="#B65DFF"/>
</g>
<defs>
<filter id="filter0_d_16_39" x="30.9998" y="299.776" width="955" height="417.448" filterUnits="userSpaceOnUse" color-interpolation-filters="sRGB">
<feFlood flood-opacity="0" result="BackgroundImageFix"/>
<feColorMatrix in="SourceAlpha" type="matrix" values="0 0 0 0 0 0 0 0 0 0 0 0 0 0 0 0 0 0 127 0" result="hardAlpha"/>
<feOffset dx="15" dy="15"/>
<feGaussianBlur stdDeviation="1"/>
<feComposite in2="hardAlpha" operator="out"/>
<feColorMatrix type="matrix" values="0 0 0 0 1 0 0 0 0 0.870588 0 0 0 0 0 0 0 0 1 0"/>
<feBlend mode="normal" in2="BackgroundImageFix" result="effect1_dropShadow_16_39"/>
<feBlend mode="normal" in="SourceGraphic" in2="effect1_dropShadow_16_39" result="shape"/>
</filter>
</defs>
</svg>
