<svg width="1091" height="254" viewBox="0 0 1091 254" fill="none" xmlns="http://www.w3.org/2000/svg">
<path d="M529.033 2.5C536.918 2.5 544.148 3.79362 550.69 6.42383C557.37 8.83825 562.982 12.3776 567.464 17.0713C572.181 21.6084 575.496 27.1678 577.412 33.6943L577.589 34.2979C579.363 40.5524 579.493 47.4014 578.075 54.79V54.791L572.364 84.498L572.36 84.5166L572.356 84.5361C571.499 88.6499 569.904 92.8126 567.61 97.0205C565.501 101.257 562.768 105.18 559.426 108.79L559.427 108.791C556.279 112.215 552.714 115.232 548.739 117.842L548.702 117.866L548.663 117.89C547.065 118.858 545.43 119.698 543.76 120.415C548.581 122.64 552.5 125.993 555.442 130.492L555.866 131.128C560.148 137.733 561.407 145.234 559.735 153.456L559.715 153.561L559.685 153.663L531.432 249.705L530.904 251.5H471.58L472.537 248.286L500.128 155.618C500.589 152.116 499.747 149.375 497.724 147.135L497.69 147.098L497.658 147.06C495.813 144.847 493.169 143.633 489.359 143.633H380.913L380.165 142.763L344.699 101.519L341.147 97.3887H496.874C500.8 97.3886 504.321 96.3727 507.501 94.3506C510.562 92.2194 512.377 89.428 513.052 85.8682L517.858 59.6367L517.859 59.6299L517.861 59.6221C518.54 56.0375 517.752 53.592 515.881 51.7969C513.84 49.8386 511.006 48.7432 507.093 48.7432H507.07L310.418 47.0215C311.769 54.0798 311.715 61.4759 310.287 69.1895L295.561 149.658C294.105 157.638 291.298 165.215 287.15 172.38H287.149C283.024 179.506 277.969 185.941 271.99 191.679C266.213 197.223 259.62 201.965 252.225 205.91C246.252 209.185 239.992 211.586 233.451 213.109L262.839 247.372L266.38 251.5H200.273L199.524 250.617L102.444 136.115L98.9541 131.999H163.812L164.56 132.874L195.369 168.916H215.512C220.32 168.736 224.692 167.035 228.689 163.723C232.714 160.387 235.073 156.546 235.948 152.178L252.172 64.5352L252.174 64.5264L252.175 64.5166C253.045 60.007 252.091 56.3884 249.444 53.3721C246.77 50.3248 243.181 48.7432 238.399 48.7432H98.6406C93.855 48.7432 89.5081 50.3396 85.5244 53.6357C81.7314 56.9383 79.4415 60.8642 78.5537 65.4639L78.5527 65.4629L62.3271 153.124L62.3232 153.143L62.3193 153.16C61.4553 157.471 62.3103 161.007 64.7754 164.023C67.4626 167.072 71.0699 168.737 75.8438 168.916H114.828L115.577 169.802L150.442 211.046L153.92 215.159H60.4697C51.1451 215.159 42.5811 213.468 34.8154 210.044C27.0853 206.636 20.5672 201.903 15.3018 195.84L15.2852 195.821L15.2695 195.802C10.2236 189.749 6.56014 182.703 4.2666 174.7L4.25781 174.672L4.25098 174.643C2.14442 166.557 1.94926 157.918 3.6084 148.763L3.60938 148.758L18.3369 68.29L18.3379 68.2842C19.9998 59.3137 23.324 50.8482 28.2939 42.8994L28.3037 42.8838C33.4506 34.7839 39.6365 27.7574 46.8594 21.8164L46.8721 21.8057L46.8857 21.7949C54.3021 15.8643 62.4446 11.2158 71.3047 7.85449C80.1938 4.29008 89.3108 2.5 98.6406 2.5H529.033Z" fill="#8E06FF" stroke="black" stroke-width="5"/>
<mask id="path-2-inside-1_15_38" fill="white">
<path fill-rule="evenodd" clip-rule="evenodd" d="M633.759 185.408C629.605 185.764 625.621 185.839 621.609 185.49C618.714 185.236 615.435 185.431 612.074 185.917C608.385 186.452 604.604 186.156 600.771 186.704C598.403 187.043 595.48 186.381 594.35 188.668C592.759 188.945 591.169 189.222 589.169 189.569C589.051 190.553 588.919 191.508 588.838 192.456C588.821 192.658 589.084 193 589.042 193.013C585.611 194.105 586.453 196.6 583.3 197.86C581.586 198.544 580.438 200.603 581.511 201.138C583.68 202.219 582.754 203.656 582.37 205.157C584.077 207.021 587.029 208.025 590.549 208.71C594.024 209.387 597.184 210.456 600.728 211.03C607.919 212.197 615.26 213.165 622.566 214.181C630.106 215.229 637.764 216.073 645.558 216.738C652.674 217.346 659.729 218.067 666.845 218.684C671.18 219.061 675.493 219.482 679.803 219.905C679.988 219.922 680.037 220.159 680.395 220.593C678.694 220.728 677.023 220.579 675.915 221.02C674.459 221.599 673.418 222.193 672.108 221.468C670.401 223.003 667.591 221.463 665.847 222.895C664.261 222.543 662.265 222.79 660.873 223.203C659.237 223.685 658.088 224.291 656.446 223.721C655.983 223.559 654.278 223.918 653.928 224.255C652.4 225.727 650.523 224.378 649.105 225.094C647.389 225.96 645.975 226.075 644.647 225.319C642.18 226.244 639.607 225.964 637.081 226.381C634.904 226.742 632.417 227.168 630.573 226.886C629.39 226.703 628.736 226.757 627.696 227.057C624.3 228.031 620.833 227.826 617.368 228.424C613.873 229.028 610.279 229.054 606.723 229.362C602.254 229.747 597.783 230.147 593.31 230.561C590.625 230.81 589.189 232.132 588.265 233.328C587.565 234.235 587.639 235.123 585.437 235.394C585.144 235.43 584.872 236.409 584.451 237.224C585.729 237.07 586.842 236.935 587.959 236.799C587.984 236.967 588.012 237.134 588.035 237.303C587.108 237.554 586.183 237.804 585.123 238.091C585.253 238.261 585.311 238.657 585.679 238.762C586.562 239.01 587.542 239.273 588.567 239.263C594.309 239.212 600.042 239.25 605.836 238.942C615.586 238.425 625.372 237.79 635.165 236.975C641.864 236.419 648.588 235.769 655.29 235.118C661.322 234.532 667.436 233.791 673.476 233.116C681.223 232.251 688.935 231.236 696.654 230.144C701.562 229.45 706.457 228.644 711.359 227.882C714.601 227.377 716.754 225.811 719.26 224.588C720.302 223.249 719.981 221.922 722.013 220.474C724.325 218.824 724.139 212.669 722.409 211C721.128 209.765 718.428 209.357 716.246 208.665C712.424 207.452 708.32 206.622 703.648 206.485C703.144 206.469 702.393 206.382 702.287 206.182C701.412 204.514 697.884 205.624 696.33 204.705C692.775 205.299 689.758 204.615 686.54 204.405C685.989 204.369 685.097 204.573 684.861 204.407C681.775 202.231 676.52 202.852 672.218 202.261C670.876 202.076 669.383 202.08 668.124 201.813C667.256 201.63 666.675 201.131 665.967 200.773C666.592 200.374 666.889 200.057 667.139 200.043C672.438 199.734 677.724 199.638 683.029 199.135C689.939 198.478 696.759 198.465 703.733 197.432C707.067 196.939 710.419 197.161 713.887 196.783C720.281 196.085 726.679 196.142 733.056 195.337C744.012 193.952 754.89 193.98 765.849 192.008C770.211 192.541 774.889 191.126 779.347 191.187C780.549 191.204 781.889 190.825 783.165 190.675C785.018 190.457 786.871 190.261 788.721 190.094C796.176 189.42 803.629 188.775 811.083 188.092C814.23 187.803 817.388 187.388 820.531 187.132C829.405 186.409 838.283 185.288 847.16 184.323C851.778 183.821 856.373 183.76 860.964 182.582C866.072 183.073 871.368 181.771 876.572 181.299C882.863 180.727 889.164 180.018 895.463 179.346C903.598 178.478 911.733 177.597 919.868 176.702C925.033 176.132 930.199 175.541 935.365 174.935C941.628 174.199 947.885 173.341 954.157 172.676C963.693 171.665 973.238 170.304 982.777 169.064C994.686 167.517 1006.6 165.976 1018.5 164.366C1025.06 163.478 1031.62 162.482 1038.17 161.486C1045.97 160.3 1053.79 159.147 1061.57 157.819C1067.18 156.862 1072.75 155.724 1078.42 155.062C1079.81 154.9 1081.18 153.701 1083.12 152.691C1082.04 152.567 1081.4 152.391 1080.71 152.432C1078.64 152.552 1076.56 152.758 1074.11 152.961C1076.38 150.411 1081.86 151.525 1083.47 149.219C1081.97 149.245 1080.35 149.275 1078.73 149.305C1078.71 149.074 1078.68 148.843 1078.66 148.612C1079.87 148.23 1081.09 147.848 1082.7 147.34C1081.68 146.36 1080.68 145.402 1079.31 144.086C1077.45 144.242 1074.43 144.027 1072.15 144.804C1069.39 145.748 1066.59 144.705 1064.06 146.234C1063.4 146.633 1062.13 145.182 1060.81 146.385C1059.39 147.675 1058.32 145.62 1056.98 146.73C1055.74 147.765 1054.16 146.794 1053.78 147.002C1051.41 148.314 1049.04 147.483 1046.69 147.987C1044.2 148.524 1041.59 148.873 1039.05 149.088C1036.79 149.28 1034.69 149.541 1032.6 150.382C1031.86 150.679 1030.33 150.895 1029.95 150.678C1028.66 149.953 1027.84 150.595 1026.59 151.028C1025.69 151.339 1024.28 150.946 1023.33 151.235C1022.22 151.572 1021.36 152.24 1020.57 151.376C1017.19 152.985 1013.17 151.178 1009.84 153.25C1009.51 153.451 1008.68 153.559 1008.25 153.495C1003.15 152.741 997.833 154.226 992.616 154.755C985.015 155.526 977.414 156.287 969.814 157.087C963.718 157.73 957.618 158.351 951.522 159.126C948.283 159.537 944.807 159.057 941.808 160.861C941.601 160.985 940.982 161.025 940.72 160.95C935.469 159.438 929.953 162.514 924.615 162.482C923.721 162.476 922.672 162.799 921.849 162.717C914.514 161.98 906.816 163.903 899.325 164.233C893.825 164.475 888.203 165.317 882.641 165.832C875.738 166.472 868.842 167.038 861.942 167.665C861.247 167.728 860.531 167.979 859.841 168.171C854.197 169.743 848.477 169.617 842.792 170.362C841.539 170.525 840.058 170.473 839.043 170.184C836.729 169.525 833.948 170.041 832.066 170.726C830.062 171.458 828.462 171.536 826.601 171.651C822.938 171.877 819.156 172.541 815.763 171.836C809.809 172.724 803.854 172.983 797.959 173.441C793.104 173.817 788.087 174.766 783.249 174.386C780.073 174.138 776.608 174.955 773.459 175.804C772.144 176.157 770.991 176.567 769.692 176.488C768.29 176.404 766.909 175.968 765.56 176.164C764.08 176.38 762.945 176.275 761.595 176.233C757.801 176.115 753.848 176.149 750.204 177.979C749.913 178.126 749.523 178.265 749.186 178.296C746.756 178.52 744.289 178.855 741.914 178.878C739.154 178.907 736.134 179.441 733.726 178.596C733.464 178.503 732.978 178.58 732.591 178.605C729.397 178.817 726.204 179.006 723.006 179.262C719.803 179.519 716.774 179.288 713.408 179.778C710.331 180.227 707.103 180.41 703.934 180.794C702.127 181.067 699.866 181.82 698.601 181.522C694.776 180.62 690.331 182.86 686.709 181.823C682.84 183.125 679.055 182.269 675.203 182.984C674.129 183.184 672.842 183.617 672.006 183.481C667.496 182.746 662.36 184.459 657.881 183.777C654.61 184.937 651.609 184.548 648.431 184.504C646.043 184.471 643.389 185.156 640.855 185.522C638.936 184.303 636.053 185.632 633.759 185.408Z"/>
</mask>
<path fill-rule="evenodd" clip-rule="evenodd" d="M633.759 185.408C629.605 185.764 625.621 185.839 621.609 185.49C618.714 185.236 615.435 185.431 612.074 185.917C608.385 186.452 604.604 186.156 600.771 186.704C598.403 187.043 595.48 186.381 594.35 188.668C592.759 188.945 591.169 189.222 589.169 189.569C589.051 190.553 588.919 191.508 588.838 192.456C588.821 192.658 589.084 193 589.042 193.013C585.611 194.105 586.453 196.6 583.3 197.86C581.586 198.544 580.438 200.603 581.511 201.138C583.68 202.219 582.754 203.656 582.37 205.157C584.077 207.021 587.029 208.025 590.549 208.71C594.024 209.387 597.184 210.456 600.728 211.03C607.919 212.197 615.26 213.165 622.566 214.181C630.106 215.229 637.764 216.073 645.558 216.738C652.674 217.346 659.729 218.067 666.845 218.684C671.18 219.061 675.493 219.482 679.803 219.905C679.988 219.922 680.037 220.159 680.395 220.593C678.694 220.728 677.023 220.579 675.915 221.02C674.459 221.599 673.418 222.193 672.108 221.468C670.401 223.003 667.591 221.463 665.847 222.895C664.261 222.543 662.265 222.79 660.873 223.203C659.237 223.685 658.088 224.291 656.446 223.721C655.983 223.559 654.278 223.918 653.928 224.255C652.4 225.727 650.523 224.378 649.105 225.094C647.389 225.96 645.975 226.075 644.647 225.319C642.18 226.244 639.607 225.964 637.081 226.381C634.904 226.742 632.417 227.168 630.573 226.886C629.39 226.703 628.736 226.757 627.696 227.057C624.3 228.031 620.833 227.826 617.368 228.424C613.873 229.028 610.279 229.054 606.723 229.362C602.254 229.747 597.783 230.147 593.31 230.561C590.625 230.81 589.189 232.132 588.265 233.328C587.565 234.235 587.639 235.123 585.437 235.394C585.144 235.43 584.872 236.409 584.451 237.224C585.729 237.07 586.842 236.935 587.959 236.799C587.984 236.967 588.012 237.134 588.035 237.303C587.108 237.554 586.183 237.804 585.123 238.091C585.253 238.261 585.311 238.657 585.679 238.762C586.562 239.01 587.542 239.273 588.567 239.263C594.309 239.212 600.042 239.25 605.836 238.942C615.586 238.425 625.372 237.79 635.165 236.975C641.864 236.419 648.588 235.769 655.29 235.118C661.322 234.532 667.436 233.791 673.476 233.116C681.223 232.251 688.935 231.236 696.654 230.144C701.562 229.45 706.457 228.644 711.359 227.882C714.601 227.377 716.754 225.811 719.26 224.588C720.302 223.249 719.981 221.922 722.013 220.474C724.325 218.824 724.139 212.669 722.409 211C721.128 209.765 718.428 209.357 716.246 208.665C712.424 207.452 708.32 206.622 703.648 206.485C703.144 206.469 702.393 206.382 702.287 206.182C701.412 204.514 697.884 205.624 696.33 204.705C692.775 205.299 689.758 204.615 686.54 204.405C685.989 204.369 685.097 204.573 684.861 204.407C681.775 202.231 676.52 202.852 672.218 202.261C670.876 202.076 669.383 202.08 668.124 201.813C667.256 201.63 666.675 201.131 665.967 200.773C666.592 200.374 666.889 200.057 667.139 200.043C672.438 199.734 677.724 199.638 683.029 199.135C689.939 198.478 696.759 198.465 703.733 197.432C707.067 196.939 710.419 197.161 713.887 196.783C720.281 196.085 726.679 196.142 733.056 195.337C744.012 193.952 754.89 193.98 765.849 192.008C770.211 192.541 774.889 191.126 779.347 191.187C780.549 191.204 781.889 190.825 783.165 190.675C785.018 190.457 786.871 190.261 788.721 190.094C796.176 189.42 803.629 188.775 811.083 188.092C814.23 187.803 817.388 187.388 820.531 187.132C829.405 186.409 838.283 185.288 847.16 184.323C851.778 183.821 856.373 183.76 860.964 182.582C866.072 183.073 871.368 181.771 876.572 181.299C882.863 180.727 889.164 180.018 895.463 179.346C903.598 178.478 911.733 177.597 919.868 176.702C925.033 176.132 930.199 175.541 935.365 174.935C941.628 174.199 947.885 173.341 954.157 172.676C963.693 171.665 973.238 170.304 982.777 169.064C994.686 167.517 1006.6 165.976 1018.5 164.366C1025.06 163.478 1031.62 162.482 1038.17 161.486C1045.97 160.3 1053.79 159.147 1061.57 157.819C1067.18 156.862 1072.75 155.724 1078.42 155.062C1079.81 154.9 1081.18 153.701 1083.12 152.691C1082.04 152.567 1081.4 152.391 1080.71 152.432C1078.64 152.552 1076.56 152.758 1074.11 152.961C1076.38 150.411 1081.86 151.525 1083.47 149.219C1081.97 149.245 1080.35 149.275 1078.73 149.305C1078.71 149.074 1078.68 148.843 1078.66 148.612C1079.87 148.23 1081.09 147.848 1082.7 147.34C1081.68 146.36 1080.68 145.402 1079.31 144.086C1077.45 144.242 1074.43 144.027 1072.15 144.804C1069.39 145.748 1066.59 144.705 1064.06 146.234C1063.4 146.633 1062.13 145.182 1060.81 146.385C1059.39 147.675 1058.32 145.62 1056.98 146.73C1055.74 147.765 1054.16 146.794 1053.78 147.002C1051.41 148.314 1049.04 147.483 1046.69 147.987C1044.2 148.524 1041.59 148.873 1039.05 149.088C1036.79 149.28 1034.69 149.541 1032.6 150.382C1031.86 150.679 1030.33 150.895 1029.95 150.678C1028.66 149.953 1027.84 150.595 1026.59 151.028C1025.69 151.339 1024.28 150.946 1023.33 151.235C1022.22 151.572 1021.36 152.24 1020.57 151.376C1017.19 152.985 1013.17 151.178 1009.84 153.25C1009.51 153.451 1008.68 153.559 1008.25 153.495C1003.15 152.741 997.833 154.226 992.616 154.755C985.015 155.526 977.414 156.287 969.814 157.087C963.718 157.73 957.618 158.351 951.522 159.126C948.283 159.537 944.807 159.057 941.808 160.861C941.601 160.985 940.982 161.025 940.72 160.95C935.469 159.438 929.953 162.514 924.615 162.482C923.721 162.476 922.672 162.799 921.849 162.717C914.514 161.98 906.816 163.903 899.325 164.233C893.825 164.475 888.203 165.317 882.641 165.832C875.738 166.472 868.842 167.038 861.942 167.665C861.247 167.728 860.531 167.979 859.841 168.171C854.197 169.743 848.477 169.617 842.792 170.362C841.539 170.525 840.058 170.473 839.043 170.184C836.729 169.525 833.948 170.041 832.066 170.726C830.062 171.458 828.462 171.536 826.601 171.651C822.938 171.877 819.156 172.541 815.763 171.836C809.809 172.724 803.854 172.983 797.959 173.441C793.104 173.817 788.087 174.766 783.249 174.386C780.073 174.138 776.608 174.955 773.459 175.804C772.144 176.157 770.991 176.567 769.692 176.488C768.29 176.404 766.909 175.968 765.56 176.164C764.08 176.38 762.945 176.275 761.595 176.233C757.801 176.115 753.848 176.149 750.204 177.979C749.913 178.126 749.523 178.265 749.186 178.296C746.756 178.52 744.289 178.855 741.914 178.878C739.154 178.907 736.134 179.441 733.726 178.596C733.464 178.503 732.978 178.58 732.591 178.605C729.397 178.817 726.204 179.006 723.006 179.262C719.803 179.519 716.774 179.288 713.408 179.778C710.331 180.227 707.103 180.41 703.934 180.794C702.127 181.067 699.866 181.82 698.601 181.522C694.776 180.62 690.331 182.86 686.709 181.823C682.84 183.125 679.055 182.269 675.203 182.984C674.129 183.184 672.842 183.617 672.006 183.481C667.496 182.746 662.36 184.459 657.881 183.777C654.61 184.937 651.609 184.548 648.431 184.504C646.043 184.471 643.389 185.156 640.855 185.522C638.936 184.303 636.053 185.632 633.759 185.408Z" fill="url(#paint0_linear_15_38)" stroke="black" stroke-width="4" mask="url(#path-2-inside-1_15_38)"/>
<path d="M725.127 61.0953C730.11 61.0954 734.686 62.0727 738.808 64.0748H738.809C742.881 65.9524 746.283 68.5692 748.971 71.9283C751.75 75.2749 753.685 79.1653 754.787 83.5592L755.004 84.401C756.027 88.6252 756.109 93.0969 755.296 97.7858L755.294 97.7975L747.683 140.575L747.681 140.583C746.813 145.372 745.079 149.933 742.495 154.254L742.489 154.265L742.481 154.277C739.906 158.476 736.69 162.186 732.845 165.406L732.846 165.407C729.094 168.634 724.912 171.217 720.31 173.15C715.644 175.11 710.799 176.095 705.793 176.095H645.401L644.651 175.191L627.005 153.911L623.462 174.029L623.099 176.095H590.469L590.985 173.163L610.318 63.1627L610.681 61.0953H725.127ZM908.644 61.0953L908.134 64.024L904.328 85.8717L903.967 87.943H803.638L800.574 105.095H877.742L877.231 108.024L873.425 129.872L873.065 131.943H795.876L792.806 149.248H893.117L892.607 152.177L888.8 174.024L888.44 176.095H755.486L756.001 173.163L775.334 63.1627L775.698 61.0953H908.644ZM946.465 61.0953L947.093 62.6686L981.522 148.979L1046.75 62.0944L1047.5 61.0953H1085.13L1082.1 65.1022L998.981 175.102L998.231 176.095H958.308L957.676 174.532L913.224 64.5319L911.835 61.0953H946.465ZM627.828 149.248H705.793C708.003 149.248 709.891 148.519 711.568 146.999C713.452 145.279 714.514 143.402 714.908 141.347L723.121 94.9371L723.125 94.9196L723.128 94.903C723.514 92.89 723.125 91.3512 722.096 90.0436L722.059 89.9948C721.069 88.6699 719.675 87.943 717.515 87.943H638.626L627.828 149.248Z" fill="#FFDE00" stroke="black" stroke-width="5"/>
<defs>
<linearGradient id="paint0_linear_15_38" x1="739.203" y1="170.304" x2="747.332" y2="228.777" gradientUnits="userSpaceOnUse">
<stop stop-color="#FFDE00"/>
<stop offset="0.991833" stop-color="#8E06FF"/>
</linearGradient>
</defs>
</svg>
